<?xml version="1.0" standalone="no"?>
<!DOCTYPE svg PUBLIC "-//W3C//DTD SVG 20010904//EN"
 "http://www.w3.org/TR/2001/REC-SVG-20010904/DTD/svg10.dtd">
<svg version="1.0" xmlns="http://www.w3.org/2000/svg"
 width="16.000000pt" height="16.000000pt" viewBox="0 0 16.000000 16.000000"
 preserveAspectRatio="xMidYMid meet">
<metadata>
Created by potrace 1.11, written by Peter Selinger 2001-2013
</metadata>
<g transform="translate(0.000000,16.000000) scale(0.006226,-0.006226)"
fill="#000000" stroke="none">
<path d="M1425 2555 c-16 -7 -41 -11 -55 -9 -87 13 -155 11 -246 -7 -142 -28
-274 -67 -302 -89 -13 -11 -40 -22 -61 -26 -20 -4 -42 -11 -48 -16 -16 -13 -9
-56 16 -100 18 -31 22 -90 8 -105 -20 -20 -164 17 -182 47 -3 5 -17 6 -33 4
-15 -2 -37 -5 -49 -7 -13 -2 -33 -13 -45 -24 -13 -11 -43 -31 -68 -43 -25 -12
-47 -24 -48 -25 -2 -2 -5 -39 -7 -82 -3 -64 0 -84 16 -110 12 -20 18 -42 15
-60 -14 -78 -14 -125 -1 -158 8 -19 15 -53 15 -75 0 -22 9 -59 20 -81 18 -35
20 -52 15 -133 -6 -91 -5 -95 24 -142 17 -27 33 -62 36 -79 2 -16 7 -39 9 -50
3 -18 7 -43 22 -140 15 -93 103 -276 157 -323 20 -19 37 -42 37 -51 0 -10 9
-26 21 -37 24 -21 59 -86 59 -107 0 -8 16 -27 35 -42 22 -16 38 -39 42 -56 3
-16 13 -35 23 -42 9 -7 20 -25 24 -40 3 -15 27 -47 51 -71 25 -23 45 -49 45
-57 0 -34 114 -130 217 -183 59 -31 80 -37 110 -32 21 3 42 5 47 6 4 0 33 25
62 55 30 30 73 67 95 82 22 15 49 43 59 63 23 46 49 77 123 148 31 30 60 67
64 81 3 14 24 48 45 75 24 29 38 57 35 67 -3 10 1 20 9 23 12 4 24 38 38 106
3 14 24 44 46 68 22 24 40 49 40 56 0 7 13 30 30 52 16 21 30 46 30 55 0 9 6
22 14 28 8 7 18 27 22 44 8 40 30 84 55 110 10 12 19 28 19 36 0 9 11 46 23
83 21 60 22 71 10 100 -20 48 -8 98 33 133 13 12 24 65 29 142 2 28 8 59 13
70 6 10 9 54 8 98 -2 53 2 87 10 100 8 12 11 32 8 45 -3 14 -5 56 -5 93 -1 60
-3 69 -22 77 -12 6 -34 20 -50 32 -24 20 -41 22 -146 25 -98 2 -126 6 -157 23
-21 11 -46 20 -55 20 -21 0 -43 43 -34 69 3 11 17 24 31 27 13 3 28 13 33 21
10 19 -13 69 -39 83 -10 5 -28 27 -41 47 -12 21 -24 40 -25 41 -1 2 -22 5 -46
6 -47 2 -211 54 -216 67 -5 12 -31 10 -67 -6z"/>
</g>
</svg>
